<svg width="24" height="34" viewBox="0 0 24 34" fill="none" xmlns="http://www.w3.org/2000/svg">
<path d="M5.52325 1.61905V3.2381H3.9042V4.85714H2.28516V1.61905H3.9042V0H18.4756V1.61905H20.0947V4.85714H18.4756V3.2381H16.8566V1.61905H5.52325Z" fill="#2E2E2E"/>
<path d="M7.14453 12.9521V11.333H10.3826V12.9521H7.14453Z" fill="#2D1A09"/>
<path d="M13.6207 12.9521V11.333H16.8588V12.9521H13.6207Z" fill="#2D1A09"/>
<path d="M12 22.6669V21.0479H20.0952V22.6669H12Z" fill="#C4C4C4"/>
<rect x="20.0977" y="21.0479" width="1.61905" height="1.61905" fill="#FF5500"/>
<path fill-rule="evenodd" clip-rule="evenodd" d="M7.1423 19.4288V21.0478H3.9042V14.5716H2.28516V11.3335H3.9042V4.85733H5.52325V3.23828H16.8566V4.85733H18.4756V19.4288H13.6185V17.8097H11.9994V19.4288H7.1423ZM16.8566 11.3335V12.9526H15.2375V14.5716H13.6185V11.3335H16.8566ZM8.76135 14.5716H7.1423V11.3335H10.3804V12.9526H8.76135V14.5716Z" fill="#E4D1B4"/>
<path d="M5.5253 24.2859H3.90625V21.0478H7.14435V19.4287H12.0015V21.0478H8.76339V22.6668H12.0015V24.2859H16.8586V27.5239H8.76339V25.9049H5.5253V24.2859Z" fill="#5B5B59"/>
<path d="M7.14416 12.9525H8.76321V14.5715H7.14416V12.9525Z" fill="black"/>
<path d="M13.6203 12.9525H15.2394V14.5715H13.6203V12.9525Z" fill="black"/>
<path d="M16.8584 3.23819V1.61914H5.52511V3.23819H16.8584Z" fill="black"/>
<path d="M18.4775 3.23819H16.8584V4.85724H18.4775V3.23819Z" fill="black"/>
<path d="M20.0965 4.85724H18.4775V19.4287H13.6203V17.8096H12.0013V19.4287V21.0477H21.7156V19.4287H20.0965V4.85724Z" fill="black"/>
<path d="M5.52511 3.23819H3.90606V4.85724H5.52511V3.23819Z" fill="black"/>
<path d="M3.90606 4.85724H2.28702V11.3334H3.90606V4.85724Z" fill="black"/>
<path d="M2.28702 11.3334H0.667969V14.5715H2.28702V11.3334Z" fill="black"/>
<path d="M8.76321 25.9049H7.14416V27.5239H8.76321V25.9049Z" fill="black"/>
<path d="M8.76321 29.1429H10.3823V34.0001H12.0013V29.1429H16.8584V27.5239H8.76321V29.1429Z" fill="black"/>
<path d="M16.8584 27.5239H18.4775V24.2858H21.7156V22.6668H12.0013V24.2858H16.8584V27.5239Z" fill="black"/>
<path d="M12.0013 22.6668V21.0477H8.76321V22.6668H12.0013Z" fill="black"/>
<path d="M23.3346 21.0477H21.7156V22.6668H23.3346V21.0477Z" fill="black"/>
<path d="M2.28702 34.0001H3.90606V14.5715H2.28702V34.0001Z" fill="black"/>
<path d="M3.90625 24.2861H5.5253V25.9052H7.14435V27.5242H8.76339V29.1433H10.3824V34.0004H3.90625V24.2861Z" fill="#D3B384"/>
</svg>
