<svg width="375" height="817" viewBox="0 0 375 817" fill="none" xmlns="http://www.w3.org/2000/svg">
<path d="M343.457 3.15274C247.906 -25.757 181.584 248.461 72.5343 111.246C74.1052 245.923 105.642 521.631 28.213 434.886M28.213 434.886C27.0596 433.594 43.412 400.556 32.7833 422.982C-21.5554 537.636 -6.46949 392.636 28.213 434.886ZM28.213 434.886C100.49 337.721 334.529 176.824 378 227.841C293.463 463.158 103.033 910.176 67.3263 798.278C31.6193 686.38 121.886 482.29 182.54 399.599C270.651 537.204 426.19 792.113 343.457 710.911C242.875 639.026 31.508 521.467 31.508 601.224" stroke="#955C22" stroke-width="0.212572"/>
</svg>
