<svg width="83" height="83" viewBox="0 0 83 83" fill="none" xmlns="http://www.w3.org/2000/svg">
<path d="M49.2889 0.571289C37.8764 5.60293 47.9646 20.8715 37.7142 34.7908C37.7145 34.7925 37.7138 34.7942 37.7142 34.7959C38.5185 38.903 37.917 43.4797 35.136 45.3502C36.1116 43.4857 35.9394 39.6406 35.0339 36.0745C26.6664 17.0318 14.0208 26.2034 5.76706 5.4326C4.47662 25.236 18.9918 23.7691 26.6335 43.0784C30.9785 43.9127 34.93 46.8321 33.9221 51.5647C32.4199 46.724 27.2736 45.1469 21.0907 46.4188C12.6598 48.9385 7.41465 55.2329 0.632467 53.1276C8.00642 61.1016 16.0617 53.256 25.7743 55.7002C27.5275 54.6164 29.515 53.933 31.3388 53.9656C32.5208 53.9868 33.6321 54.3106 34.5666 55.0184C31.565 54.5705 25.5853 58.5269 23.4917 62.2478C21.5949 67.5883 24.4482 74.6819 19.3558 82.5559C30.4516 80.9261 28.9779 70.1616 35.8613 64.5147C34.8387 60.3919 35.752 55.1915 39.2829 53.7025C37.8501 55.5043 37.7535 60.0547 38.7402 63.752C41.7835 72.0966 50.6739 71.3764 56.3413 82.9804C57.0494 74.5637 51.5673 68.7036 49.7829 62.4198C45.3966 60.3553 41.1145 55.8319 41.8928 51.8547C42.7663 54.6447 47.9101 58.5802 52.2534 60.1373C62.7266 62.9145 70.9018 56.3269 82.3425 64.1922C75.0526 51.2407 65.5472 56.661 55.9597 50.5711C51.6118 51.7021 46.3846 51.2552 44.353 48.2348C46.1264 49.1626 49.6983 49.059 53.113 48.267L53.1291 48.2618C70.0964 41.9038 69.0128 22.1719 81.9988 20.7185C67.5125 14.6032 64.2269 35.4728 50.5563 38.3195C47.9239 42.6587 43.8102 45.7686 39.2287 45.9035C41.1996 44.5715 44.5307 41.8966 46.9739 38.626C46.9593 38.6255 46.9452 38.6263 46.931 38.626C55.6737 27.3874 43.3309 15.4806 49.2886 0.571633L49.2889 0.571289ZM72.7498 9.11176C66.3224 9.14321 59.6351 16.0418 59.7355 25.1711C64.5067 14.6595 72.8268 12.7277 82.0792 16.3625C79.8821 11.2406 76.3553 9.09406 72.7498 9.11176ZM33.9972 9.21368C33.9058 9.21145 33.8116 9.21472 33.7181 9.21884C32.8618 9.25734 31.9173 9.56018 30.8928 10.1858C36.0783 13.6402 38.6438 19.9454 36.3337 29.3444C41.3273 21.8781 39.7648 9.34723 33.9974 9.21351L33.9972 9.21368ZM0.487061 22.7002V29.6611C7.2115 30.2361 13.6462 33.4604 19.3612 40.0166C17.0897 30.745 8.74617 24.251 0.487061 22.7002ZM22.4334 57.5749C11.9831 58.9959 12.0484 64.3265 1.948 63.1878C10.4672 70.6157 15.0918 61.7598 22.4334 57.5749ZM69.4357 63.2361C65.6088 63.2705 60.5197 64.3349 55.5677 64.6219C62.2485 67.8893 73.5424 63.8107 75.5371 69.7137C76.4852 64.4804 73.7728 63.1972 69.4356 63.2361H69.4357Z" fill="url(#paint0_linear_20_68)"/>
<defs>
<linearGradient id="paint0_linear_20_68" x1="41.4148" y1="0.571289" x2="41.4148" y2="82.9804" gradientUnits="userSpaceOnUse">
<stop stop-color="white"/>
<stop offset="1" stop-color="#999999"/>
</linearGradient>
</defs>
</svg>
