<svg width="34" height="34" viewBox="0 0 34 34" fill="none" xmlns="http://www.w3.org/2000/svg">
<path d="M17 34C14.6603 34 12.4566 33.553 10.3889 32.6589C8.32119 31.7635 6.52045 30.5484 4.98668 29.0133C3.4529 27.4783 2.23771 25.6775 1.34112 23.6111C0.444529 21.5447 -0.00250794 19.341 1.0582e-05 17C1.0582e-05 14.6527 0.447048 12.4471 1.34112 10.3832C2.23645 8.31803 3.45164 6.51918 4.98668 4.98666C6.52171 3.45415 8.32245 2.23896 10.3889 1.34111C12.4566 0.447037 14.6603 0 17 0C19.3473 0 21.5529 0.447037 23.6168 1.34111C25.682 2.23644 27.4814 3.45163 29.0152 4.98666C30.549 6.5217 31.7636 8.32055 32.6589 10.3832C33.553 12.4484 34 14.654 34 17C34 19.3397 33.553 21.5434 32.6589 23.6111C31.7636 25.6788 30.5484 27.4795 29.0133 29.0133C27.4783 30.5471 25.6794 31.7623 23.6168 32.6589C21.5541 33.5555 19.3485 34.0025 17 34ZM17 32.1262C18.1082 30.702 19.0224 29.3036 19.7427 27.931C20.4617 26.5584 21.0466 25.0221 21.4974 23.3221H12.5026C13.0025 25.1178 13.5994 26.702 14.2932 28.0745C14.9883 29.4471 15.8906 30.7977 17 32.1262ZM14.5955 31.8429C13.714 30.804 12.9093 29.5195 12.1815 27.9895C11.4536 26.4608 10.9121 24.9044 10.557 23.3202H3.31312C4.39608 25.6687 5.93049 27.5954 7.91634 29.1002C9.90345 30.6038 12.1298 31.518 14.5955 31.8429ZM19.4046 31.8429C21.8702 31.518 24.0966 30.6038 26.0837 29.1002C28.0695 27.5954 29.6039 25.6687 30.6869 23.3202H23.4449C22.9664 24.9283 22.3638 26.4967 21.6372 28.0254C20.9094 29.5554 20.1652 30.8292 19.4046 31.8429ZM2.54245 21.4332H10.1641C10.0206 20.6575 9.91982 19.902 9.8619 19.1665C9.80145 18.4324 9.77123 17.7102 9.77123 17C9.77123 16.2898 9.80082 15.5676 9.86001 14.8334C9.91919 14.0993 10.0199 13.3437 10.1622 12.5668H2.54434C2.33908 13.2216 2.17853 13.935 2.06268 14.7069C1.94682 15.4776 1.8889 16.2419 1.8889 17C1.8889 17.7581 1.9462 18.5231 2.06079 19.295C2.17538 20.0669 2.33594 20.779 2.54245 21.4313M12.053 21.4313H21.947C22.0906 20.6569 22.1913 19.9139 22.2492 19.2024C22.3097 18.4922 22.3399 17.7581 22.3399 17C22.3399 16.2419 22.3103 15.5078 22.2511 14.7976C22.1919 14.0873 22.0912 13.3444 21.9489 12.5687H12.0511C11.9088 13.3431 11.8081 14.0861 11.7489 14.7976C11.6897 15.5078 11.6601 16.2419 11.6601 17C11.6601 17.7581 11.6897 18.4922 11.7489 19.2024C11.8081 19.9127 11.9107 20.6556 12.053 21.4313ZM23.8378 21.4313H31.4576C31.6628 20.7778 31.8234 20.0657 31.9392 19.295C32.0538 18.5231 32.1111 17.7581 32.1111 17C32.1111 16.2419 32.0538 15.4769 31.9392 14.705C31.8246 13.9331 31.6641 13.221 31.4576 12.5687H23.8359C23.9794 13.3431 24.0802 14.098 24.1381 14.8334C24.1986 15.5688 24.2288 16.291 24.2288 17C24.2288 17.709 24.1992 18.4311 24.14 19.1665C24.0808 19.902 23.9801 20.6575 23.8378 21.4332M23.4449 10.6798H30.6869C29.58 8.28215 28.0639 6.35548 26.1384 4.89978C24.213 3.44407 21.9684 2.51789 19.4046 2.12122C20.286 3.281 21.0787 4.60763 21.7827 6.10111C22.4866 7.59333 23.0407 9.11955 23.4449 10.6798ZM12.5026 10.6798H21.4974C20.9988 8.90674 20.3836 7.3037 19.652 5.87066C18.9204 4.43763 18.0364 3.10533 17 1.87378C15.9636 3.10407 15.0796 4.43637 14.348 5.87066C13.6164 7.30496 13 8.908 12.5026 10.6798ZM3.31501 10.6798H10.557C10.9612 9.12081 11.5153 7.59459 12.2192 6.10111C12.9232 4.60763 13.7159 3.281 14.5973 2.12122C12.0108 2.51915 9.76053 3.451 7.84645 4.91678C5.93238 6.38507 4.42127 8.30544 3.31312 10.6779" fill="#F3F1F1"/>
</svg>
