<svg width="20" height="15" viewBox="0 0 20 15" fill="none" xmlns="http://www.w3.org/2000/svg">
<path d="M1.41667 0H8.5C8.87572 0 9.23606 0.149256 9.50173 0.414932C9.76741 0.680609 9.91667 1.04094 9.91667 1.41667C9.91667 1.79239 9.76741 2.15272 9.50173 2.4184C9.23606 2.68408 8.87572 2.83333 8.5 2.83333H1.41667C1.04094 2.83333 0.680609 2.68408 0.414932 2.4184C0.149256 2.15272 0 1.79239 0 1.41667C0 1.04094 0.149256 0.680609 0.414932 0.414932C0.680609 0.149256 1.04094 0 1.41667 0ZM11.3333 11.3333H18.4167C18.7924 11.3333 19.1527 11.4826 19.4184 11.7483C19.6841 12.0139 19.8333 12.3743 19.8333 12.75C19.8333 13.1257 19.6841 13.4861 19.4184 13.7517C19.1527 14.0174 18.7924 14.1667 18.4167 14.1667H11.3333C10.9576 14.1667 10.5973 14.0174 10.3316 13.7517C10.0659 13.4861 9.91667 13.1257 9.91667 12.75C9.91667 12.3743 10.0659 12.0139 10.3316 11.7483C10.5973 11.4826 10.9576 11.3333 11.3333 11.3333ZM1.41667 5.66667H18.4167C18.7924 5.66667 19.1527 5.81592 19.4184 6.0816C19.6841 6.34728 19.8333 6.70761 19.8333 7.08333C19.8333 7.45906 19.6841 7.81939 19.4184 8.08507C19.1527 8.35074 18.7924 8.5 18.4167 8.5H1.41667C1.04094 8.5 0.680609 8.35074 0.414932 8.08507C0.149256 7.81939 0 7.45906 0 7.08333C0 6.70761 0.149256 6.34728 0.414932 6.0816C0.680609 5.81592 1.04094 5.66667 1.41667 5.66667Z" fill="#F3F1F1"/>
</svg>
